<?xml version="1.0" encoding="UTF-8"?>
<svg version="1.1" xmlns="http://www.w3.org/2000/svg" width="500" height="500">
<path d="M0 0 C0.72106934 0.19754883 1.44213867 0.39509766 2.18505859 0.59863281 C12.41985296 3.47181872 21.67955728 7.99595127 31 13 C32.59328125 13.83337891 32.59328125 13.83337891 34.21875 14.68359375 C62.85352349 30.39504184 86.17967457 60.45936933 95.40625 91.60546875 C101.99041643 114.96856414 104.11111561 140.26932466 98 164 C97.70198486 165.18384277 97.70198486 165.18384277 97.39794922 166.39160156 C88.37364379 201.31262167 65.80909019 232.60678912 34.78076172 251.33984375 C3.38541875 269.60911354 -34.72475621 275.72376002 -70.10644531 266.44775391 C-106.58777936 256.39060124 -136.91056741 233.09194367 -156.13671875 200.4296875 C-173.16269472 170.43765255 -178.55871193 131.82228149 -169.69335938 98.39990234 C-158.91581462 61.09593581 -135.6570265 31.2977082 -102 12 C-101.20851563 11.53102295 -100.41703125 11.0620459 -99.6015625 10.57885742 C-92.71671621 6.62715961 -85.85454351 4.03838457 -78.25 1.8125 C-77.09749756 1.47154297 -75.94499512 1.13058594 -74.75756836 0.77929688 C-71.51033245 -0.16711759 -68.25704691 -1.08802687 -65 -2 C-64.2673291 -2.21350098 -63.5346582 -2.42700195 -62.77978516 -2.64697266 C-42.41943852 -8.45425615 -20.02707578 -5.63124994 0 0 Z " fill="#3D84B5" transform="translate(286,117)"/>
<path d="M0 0 C6.64946189 3.80503917 10.49537441 8.6399344 12.61206055 16.04589844 C13.09037936 18.229517 13.27026226 20.25266135 13.36328125 22.484375 C13.41935547 23.67643555 13.41935547 23.67643555 13.4765625 24.89257812 C13.54737121 26.56182798 13.61767681 28.23109925 13.6875 29.90039062 C13.48927748 33.86809253 13.48927748 33.86809253 15.08203125 37.19140625 C15.87973495 48.63346872 8.40666995 60.1562081 2.08203125 69.19140625 C1.42203125 69.19140625 0.76203125 69.19140625 0.08203125 69.19140625 C0.32822972 73.17402862 0.48658042 75.51328495 3.1640625 78.5625 C6.11963181 80.79926132 9.07258152 83.02730757 12.08203125 85.19140625 C12.95988281 85.85140625 13.83773437 86.51140625 14.7421875 87.19140625 C21.99328348 92.36628914 29.7596417 96.0577394 37.87255859 99.69116211 C46.85660587 103.77549793 46.85660587 103.77549793 49.08203125 107.19140625 C49.81502256 109.98649658 50.09633342 112.75388374 50.33203125 115.62890625 C50.409375 116.37978516 50.48671875 117.13066406 50.56640625 117.90429688 C50.94132161 121.71035722 51.08203125 125.34920722 51.08203125 129.19140625 C7.52203125 129.19140625 -36.03796875 129.19140625 -80.91796875 129.19140625 C-80.58796875 125.23140625 -80.25796875 121.27140625 -79.91796875 117.19140625 C-79.78225888 113.31890292 -79.78225888 113.31890292 -79.6875 109.4453125 C-78.08901151 104.76344521 -73.41215104 102.34306646 -69.21875 100.1640625 C-67.89274637 99.52024458 -66.56317626 98.88372991 -65.23046875 98.25390625 C-63.80156202 97.5544494 -62.37317738 96.85392498 -60.9453125 96.15234375 C-59.60306918 95.49827788 -58.26063824 94.84459681 -56.91796875 94.19140625 C-49.37289503 90.51232206 -42.97159465 86.11795764 -36.51123047 80.79760742 C-32.10940609 77.19140625 -32.10940609 77.19140625 -29.91796875 77.19140625 C-30.93650356 70.28800368 -33.17460473 65.86268384 -37.03125 60.08984375 C-41.75783998 52.82870553 -46.08905942 46.05823558 -44.91796875 37.19140625 C-44.58796875 36.86140625 -44.25796875 36.53140625 -43.91796875 36.19140625 C-43.82285193 34.19818036 -43.73377582 32.20444424 -43.6784668 30.2097168 C-43.36603548 19.69885855 -42.18746028 11.28874023 -34.91796875 3.19140625 C-24.52314257 -4.33138005 -11.6257151 -5.53330055 0 0 Z " fill="#FCFDFD" transform="translate(264.91796875,184.80859375)"/>
<path d="M0 0 C2.05596957 3.70074522 3.36675691 7.06142774 2.5625 11.3125 C2.2840625 12.1478125 2.2840625 12.1478125 2 13 C2.763125 13.45375 3.52625 13.9075 4.3125 14.375 C9.86666667 17.73333333 9.86666667 17.73333333 11 20 C13.32746921 21.06937775 15.5728829 21.89645646 18.0625 22.5 C20.22848064 23.05896274 22.03315788 23.94633458 24 25 C24.495 24.505 24.495 24.505 25 24 C27 26 27 26 27 30 C28.35544922 29.94779297 28.35544922 29.94779297 29.73828125 29.89453125 C30.91777344 29.86746094 32.09726562 29.84039062 33.3125 29.8125 C34.48425781 29.77769531 35.65601563 29.74289062 36.86328125 29.70703125 C40 30 40 30 41.9375 31.375 C43 33 43 33 42.6875 35.1875 C42.460625 35.785625 42.23375 36.38375 42 37 C43.32 37.33 44.64 37.66 46 38 C46 38.99 46 39.98 46 41 C47.32 40.67 48.64 40.34 50 40 C50 41.98 50 43.96 50 46 C49.34 46 48.68 46 48 46 C48.46800711 50.05606165 48.87953208 53.46588679 51 57 C50.34 57.99 49.68 58.98 49 60 C49.66 60.66 50.32 61.32 51 62 C51.125 65.125 51.125 65.125 51 68 C46.375 70.125 46.375 70.125 43 69 C43 68.34 43 67.68 43 67 C42.030625 67.185625 41.06125 67.37125 40.0625 67.5625 C39.051875 67.706875 38.04125 67.85125 37 68 C36.67 67.67 36.34 67.34 36 67 C34.43153881 66.89194335 32.85825535 66.85316214 31.28611755 66.84178162 C30.26663025 66.8319928 29.24714294 66.82220398 28.19676208 66.81211853 C27.068918 66.80636307 25.94107391 66.8006076 24.77905273 66.79467773 C23.59872467 66.78477814 22.41839661 66.77487854 21.20230103 66.76467896 C17.95660881 66.73842921 14.71092205 66.71659283 11.46518588 66.69667697 C8.07654048 66.67485448 4.68794048 66.64744757 1.29933167 66.62062073 C-5.1215251 66.57064314 -11.542407 66.52572318 -17.96331304 66.48259836 C-25.27157049 66.43326919 -32.5797824 66.37833509 -39.88799584 66.32291877 C-54.92528814 66.20902099 -69.9626233 66.10219902 -85 66 C-85 65.67 -85 65.34 -85 65 C-41.44 65 2.12 65 47 65 C46.88065701 43.35672549 46.88065701 43.35672549 39 38 C36.92735545 36.84176216 36.92735545 36.84176216 34.8125 35.95703125 C34.03769287 35.61019287 33.26288574 35.26335449 32.46459961 34.90600586 C31.65128174 34.54514893 30.83796387 34.18429199 30 33.8125 C17.66649061 28.15046394 5.65767495 20.65767495 -4 11 C-4.04092937 8.66702567 -4.04241723 6.33294775 -4 4 C-3.34 4 -2.68 4 -2 4 C-1.34 2.68 -0.68 1.36 0 0 Z " fill="#337197" transform="translate(269,250)"/>
<path d="M0 0 C2.05596957 3.70074522 3.36675691 7.06142774 2.5625 11.3125 C2.376875 11.869375 2.19125 12.42625 2 13 C2.763125 13.45375 3.52625 13.9075 4.3125 14.375 C9.86666667 17.73333333 9.86666667 17.73333333 11 20 C13.32746921 21.06937775 15.5728829 21.89645646 18.0625 22.5 C20.22848064 23.05896274 22.03315788 23.94633458 24 25 C24.33 24.67 24.66 24.34 25 24 C27 26 27 26 27 30 C28.35544922 29.94779297 28.35544922 29.94779297 29.73828125 29.89453125 C30.91777344 29.86746094 32.09726562 29.84039062 33.3125 29.8125 C34.48425781 29.77769531 35.65601563 29.74289062 36.86328125 29.70703125 C40 30 40 30 41.94921875 31.38671875 C42.29597656 31.91910156 42.64273438 32.45148438 43 33 C42.66666667 34.33333333 42.33333333 35.66666667 42 37 C43.35444301 38.77190909 43.35444301 38.77190909 45 40 C27.57954508 36.17557481 8.43586838 23.43586838 -4 11 C-4.04092937 8.66702567 -4.04241723 6.33294775 -4 4 C-3.34 4 -2.68 4 -2 4 C-1.34 2.68 -0.68 1.36 0 0 Z " fill="#3D769A" transform="translate(269,250)"/>
<path d="M0 0 C0.99 0.495 0.99 0.495 2 1 C-10.02277547 8.19904793 -21.97610995 14.11458716 -35.5625 17.75 C-36.3052417 17.94875732 -37.0479834 18.14751465 -37.81323242 18.35229492 C-49.16921168 21.22297426 -60.30215565 22.32746917 -72 22.25 C-73.16789062 22.25773437 -74.33578125 22.26546875 -75.5390625 22.2734375 C-83.52502065 22.25573028 -91.14630866 21.43179838 -99 20 C-99 19.67 -99 19.34 -99 19 C-97.22109375 19.10828125 -97.22109375 19.10828125 -95.40625 19.21875 C-90.27259361 19.51997578 -85.13745481 19.77317202 -80 20 C-78.96069336 20.04737305 -78.96069336 20.04737305 -77.90039062 20.09570312 C-63.80816652 20.65594445 -48.37162966 19.67397389 -35 15 C-33.68 15 -32.36 15 -31 15 C-31 14.34 -31 13.68 -31 13 C-30.21625 12.87625 -29.4325 12.7525 -28.625 12.625 C-25.85942178 12.20882007 -25.85942178 12.20882007 -24 10 C-23.01 9.34 -22.02 8.68 -21 8 C-20.67 7.01 -20.34 6.02 -20 5 C-18.15234375 4.26953125 -18.15234375 4.26953125 -15.9375 3.8125 C-15.20402344 3.65394531 -14.47054687 3.49539063 -13.71484375 3.33203125 C-13.14894531 3.22246094 -12.58304687 3.11289062 -12 3 C-11.505 3.99 -11.505 3.99 -11 5 C-7.80587041 4.03433292 -5.10410094 3.06388013 -2.25 1.3125 C-1.5075 0.879375 -0.765 0.44625 0 0 Z " fill="#2A6387" transform="translate(322,365)"/>
<path d="M0 0 C0.66 0 1.32 0 2 0 C2 0.66 2 1.32 2 2 C2.66 2 3.32 2 4 2 C4 1.34 4 0.68 4 0 C4.66 0 5.32 0 6 0 C-0.9285869 14.67038822 -16.38685998 28.44250653 -30 37 C-30.66 37 -31.32 37 -32 37 C-32 36.34 -32 35.68 -32 35 C-31.34 35 -30.68 35 -30 35 C-28.38285322 31.76570644 -27.66753574 28.52840318 -27 25 C-26.01 25 -25.02 25 -24 25 C-24.33 26.32 -24.66 27.64 -25 29 C-22.4390706 27.20142332 -22.4390706 27.20142332 -20 25 C-20 24.01 -20 23.02 -20 22 C-19.34 21.34 -18.68 20.68 -18 20 C-18 19.34 -18 18.68 -18 18 C-17.030625 17.7525 -16.06125 17.505 -15.0625 17.25 C-14.051875 16.8375 -13.04125 16.425 -12 16 C-11.03122943 13.96756452 -11.03122943 13.96756452 -11 12 C-10.34 12 -9.68 12 -9 12 C-8.67 11.67 -8.34 11.34 -8 11 C-7.34 10.67 -6.68 10.34 -6 10 C-5.505 9.484375 -5.01 8.96875 -4.5 8.4375 C-3 7 -3 7 -1 7 C-1.20625 6.21625 -1.4125 5.4325 -1.625 4.625 C-1.74875 3.75875 -1.8725 2.8925 -2 2 C-1.34 1.34 -0.68 0.68 0 0 Z " fill="#327098" transform="translate(356,328)"/>
<path d="M0 0 C5 5 5 5 5.125 7.625 C5.08375 8.40875 5.0425 9.1925 5 10 C5.66 10.33 6.32 10.66 7 11 C6.67 11.99 6.34 12.98 6 14 C5.85701756 15.85052276 5.77965329 17.70669851 5.75 19.5625 C5.72421875 20.53316406 5.6984375 21.50382812 5.671875 22.50390625 C5.78015625 23.32761719 5.8884375 24.15132812 6 25 C6.99 25.66 7.98 26.32 9 27 C9.6875 29.125 9.6875 29.125 10 31 C9.34 31 8.68 31 8 31 C7.34 33.64 6.68 36.28 6 39 C5.67 39 5.34 39 5 39 C4.93941406 38.21753906 4.87882812 37.43507812 4.81640625 36.62890625 C4.73261719 35.61699219 4.64882813 34.60507813 4.5625 33.5625 C4.48128906 32.55316406 4.40007812 31.54382813 4.31640625 30.50390625 C4.26788532 28.06359221 4.26788532 28.06359221 3 27 C2.81229753 24.16360719 2.67240474 21.33953377 2.5625 18.5 C2.27127095 12.11560515 1.71803326 6.18491974 0 0 Z " fill="#306F96" transform="translate(275,194)"/>
<path d="M0 0 C1.25619141 0.00451172 2.51238281 0.00902344 3.80664062 0.01367188 C6.89197663 0.02540319 9.97721316 0.041819 13.0625 0.0625 C13.0625 0.3925 13.0625 0.7225 13.0625 1.0625 C12.47758789 1.0718457 11.89267578 1.08119141 11.29003906 1.09082031 C8.6300142 1.14463279 5.97172778 1.22825449 3.3125 1.3125 C1.93191406 1.33376953 1.93191406 1.33376953 0.5234375 1.35546875 C-4.84218514 1.42573117 -4.84218514 1.42573117 -9.3125 4.0625 C-9.84875 4.7225 -10.385 5.3825 -10.9375 6.0625 C-13.078125 6.671875 -13.078125 6.671875 -15.1875 6.8125 C-16.425 6.895 -17.6625 6.9775 -18.9375 7.0625 C-18.9375 6.4025 -18.9375 5.7425 -18.9375 5.0625 C-19.5975 4.7325 -20.2575 4.4025 -20.9375 4.0625 C-20.2775 3.7325 -19.6175 3.4025 -18.9375 3.0625 C-19.5975 2.4025 -20.2575 1.7425 -20.9375 1.0625 C-13.98535719 -0.24941997 -7.05305097 -0.04808058 0 0 Z " fill="#72ACD1" transform="translate(249.9375,111.9375)"/>
<path d="M0 0 C0.66 0.33 1.32 0.66 2 1 C-6.11089465 5.98494401 -13.52855746 10.14437044 -23 12 C-23 10 -23 10 -21 8 C-20.67 7.01 -20.34 6.02 -20 5 C-18.15234375 4.26953125 -18.15234375 4.26953125 -15.9375 3.8125 C-15.20402344 3.65394531 -14.47054688 3.49539063 -13.71484375 3.33203125 C-12.86599609 3.16767578 -12.86599609 3.16767578 -12 3 C-11.67 3.66 -11.34 4.32 -11 5 C-7.80587041 4.03433292 -5.10410094 3.06388013 -2.25 1.3125 C-1.13625 0.6628125 -1.13625 0.6628125 0 0 Z " fill="#337098" transform="translate(322,365)"/>
<path d="M0 0 C0.33 0.66 0.66 1.32 1 2 C-0.00335708 4.71201516 -1.06894836 7.30444959 -2.25 9.9375 C-2.56324219 10.66646484 -2.87648438 11.39542969 -3.19921875 12.14648438 C-4.77524267 15.71379163 -6.08810213 18.33315776 -9 21 C-10.125 13.375 -10.125 13.375 -9 10 C-7.35 10.33 -5.7 10.66 -4 11 C-4 9.35 -4 7.7 -4 6 C-3.34 6 -2.68 6 -2 6 C-1.34 4.02 -0.68 2.04 0 0 Z " fill="#2D6A96" transform="translate(378,296)"/>
<path d="M0 0 C8.60294118 4.20588235 8.60294118 4.20588235 10 7 C10.928125 7.2165625 10.928125 7.2165625 11.875 7.4375 C14.39658526 8.10497845 15.3855092 8.9818865 17 11 C17 11.66 17 12.32 17 13 C19.475 13.495 19.475 13.495 22 14 C20.33203125 14.69140625 20.33203125 14.69140625 18 15 C11.36481863 11.81958382 5.30363246 7.06791546 0 2 C0 1.34 0 0.68 0 0 Z " fill="#3F7291" transform="translate(270,263)"/>
<path d="M0 0 C0.6875 1.6875 0.6875 1.6875 1 4 C0.05988318 5.70116376 -0.94895617 7.36504293 -2 9 C-4.03460993 13.97845946 -4.40942011 18.5753277 -4.625 23.875 C-4.66367188 24.65875 -4.70234375 25.4425 -4.7421875 26.25 C-4.83566622 28.16631367 -4.91888495 30.08312319 -5 32 C-5.99 32 -6.98 32 -8 32 C-7.67 31.67 -7.34 31.34 -7 31 C-6.90487511 29.00660516 -6.81573518 27.01270733 -6.76000977 25.01782227 C-6.48011962 15.54019534 -5.36006837 8.04010256 0 0 Z " fill="#D5EBF6" transform="translate(228,190)"/>
<path d="M0 0 C0.66 0 1.32 0 2 0 C1.55869594 6.10604339 -0.44811172 10.22459587 -3.5625 15.4375 C-3.98724609 16.16904297 -4.41199219 16.90058594 -4.84960938 17.65429688 C-5.88959514 19.44213758 -6.94340177 21.22192662 -8 23 C-8.33 23 -8.66 23 -9 23 C-9.37151703 17.42724458 -9.37151703 17.42724458 -7.75 15.5625 C-7.1725 15.046875 -6.595 14.53125 -6 14 C-3.06521034 9.37548296 -1.30005086 5.30854102 0 0 Z " fill="#E1F3F8" transform="translate(277,228)"/>
<path d="M0 0 C0.66 0.66 1.32 1.32 2 2 C1.67 2.66 1.34 3.32 1 4 C0.34 4 -0.32 4 -1 4 C-1.05794427 6.83926925 -1.04896278 8.41255849 0 11 C2.75975495 13.69726993 5.79092607 15.86710036 9 18 C8.67 18.66 8.34 19.32 8 20 C6.68 19.34 5.36 18.68 4 18 C4 17.34 4 16.68 4 16 C2.68 16 1.36 16 0 16 C-2.15942819 12.76085771 -2.27232978 11.75140267 -2.25 8 C-2.25515625 7.13375 -2.2603125 6.2675 -2.265625 5.375 C-2 3 -2 3 0 0 Z " fill="#E4F5FA" transform="translate(266,250)"/>
<path d="M0 0 C0.66 0.33 1.32 0.66 2 1 C2.33 0.67 2.66 0.34 3 0 C3.33 0 3.66 0 4 0 C4 2.31 4 4.62 4 7 C1.35261084 8.4606285 0.10551666 9 -3 9 C-3.36923077 3.46153846 -3.36923077 3.46153846 -1.5 1.125 C-1.005 0.75375 -0.51 0.3825 0 0 Z " fill="#4B8FBB" transform="translate(231,255)"/>
<path d="M0 0 C0.66 0.99 1.32 1.98 2 3 C1.0096063 5.9711811 -0.09824901 7.56575873 -2 10 C-2.99 11.485 -2.99 11.485 -4 13 C-4.66 13 -5.32 13 -6 13 C-6.33 13.99 -6.66 14.98 -7 16 C-6.66830805 9.69785303 -3.32676012 5.14783064 0 0 Z " fill="#3C7294" transform="translate(278,234)"/>
<path d="M0 0 C-1.25543424 3.76630271 -2.88688863 4.59441394 -6 7 C-9.96234582 10.7591486 -13.49516007 14.82068915 -17 19 C-17 14.75308475 -14.53418324 12.97066087 -11.75 10.0625 C-11.01330078 9.27456055 -11.01330078 9.27456055 -10.26171875 8.47070312 C-8.85238529 6.96929321 -7.42774072 5.48388203 -6 4 C-4.89398438 2.82244141 -4.89398438 2.82244141 -3.765625 1.62109375 C-2 0 -2 0 0 0 Z " fill="#347097" transform="translate(160,147)"/>
<path d="M0 0 C0.66 0.33 1.32 0.66 2 1 C1.01 1.66 0.02 2.32 -1 3 C-1 3.99 -1 4.98 -1 6 C-1.60328125 6.13277344 -2.2065625 6.26554688 -2.828125 6.40234375 C-3.62734375 6.57894531 -4.4265625 6.75554687 -5.25 6.9375 C-6.43335938 7.19853516 -6.43335938 7.19853516 -7.640625 7.46484375 C-9.76878703 7.947556 -11.88532842 8.46163178 -14 9 C-10.38216587 4.55993084 -5.28163799 2.01511972 0 0 Z " fill="#377AA3" transform="translate(190,126)"/>
<path d="M0 0 C2.0625 0.6875 2.0625 0.6875 4 2 C4.75 4.125 4.75 4.125 5 6 C4.34 6 3.68 6 3 6 C2.34 8.64 1.68 11.28 1 14 C0.67 14 0.34 14 0 14 C-0.06058594 13.22914063 -0.12117188 12.45828125 -0.18359375 11.6640625 C-0.26738281 10.66117188 -0.35117187 9.65828125 -0.4375 8.625 C-0.51871094 7.62726563 -0.59992188 6.62953125 -0.68359375 5.6015625 C-0.84965626 3.02072387 -0.84965626 3.02072387 -2 1 C-1.34 0.67 -0.68 0.34 0 0 Z " fill="#3B789D" transform="translate(280,219)"/>
<path d="M0 0 C0.66 0.66 1.32 1.32 2 2 C1.67 2.99 1.34 3.98 1 5 C-2.63 3.68 -6.26 2.36 -10 1 C-10 0.67 -10 0.34 -10 0 C-6.31938873 -0.9464429 -3.66134991 -1.08850943 0 0 Z " fill="#357AA8" transform="translate(310,281)"/>
<path d="M0 0 C1.04702186 3.7264085 1.07442057 7.13013042 1 11 C0.360625 11.103125 -0.27875 11.20625 -0.9375 11.3125 C-1.9584375 11.6528125 -1.9584375 11.6528125 -3 12 C-3.33 12.99 -3.66 13.98 -4 15 C-5 13 -5 13 -4.00390625 9.9609375 C-3.52824219 8.77757812 -3.05257812 7.59421875 -2.5625 6.375 C-2.08941406 5.18648437 -1.61632812 3.99796875 -1.12890625 2.7734375 C-0.75636719 1.85820312 -0.38382812 0.94296875 0 0 Z " fill="#337AA1" transform="translate(124,194)"/>
<path d="M0 0 C0.66 0 1.32 0 2 0 C2 0.66 2 1.32 2 2 C2.66 2.33 3.32 2.66 4 3 C2.35 3.66 0.7 4.32 -1 5 C-0.67 3.35 -0.34 1.7 0 0 Z M-1 5 C-1 5.99 -1 6.98 -1 8 C-3 9.6875 -3 9.6875 -5 11 C-5.66 9.35 -6.32 7.7 -7 6 C-4 5 -4 5 -1 5 Z " fill="#347CA2" transform="translate(345,340)"/>
<path d="M0 0 C4.43090471 1.20842856 6.98112756 2.51668565 10 6 C9.67 6.99 9.34 7.98 9 9 C9 8.34 9 7.68 9 7 C6.69 6.67 4.38 6.34 2 6 C2 5.01 2 4.02 2 3 C1.34 2.67 0.68 2.34 0 2 C0 1.34 0 0.68 0 0 Z " fill="#E5F4F8" transform="translate(304,286)"/>
<path d="M0 0 C2.92879371 0.62759865 5.36095629 1.58622659 8 3 C8.33 2.67 8.66 2.34 9 2 C11 4 11 4 11 7 C7.85262818 6.30058404 4.97411124 5.23921302 2 4 C2 3.34 2 2.68 2 2 C1.34 2 0.68 2 0 2 C0 1.34 0 0.68 0 0 Z " fill="#3579A6" transform="translate(285,272)"/>
<path d="M0 0 C1.0725 0.165 2.145 0.33 3.25 0.5 C7.03028752 1.08810915 7.03028752 1.08810915 11 1 C10 4 10 4 8.3125 4.875 C4.96831319 5.05576685 2.85801315 3.62387111 0 2 C0 1.34 0 0.68 0 0 Z " fill="#3F8ABE" transform="translate(172,360)"/>
<path d="M0 0 C1.32 0.66 2.64 1.32 4 2 C4 2.66 4 3.32 4 4 C3.34 4 2.68 4 2 4 C1.67 5.98 1.34 7.96 1 10 C0.01 10 -0.98 10 -2 10 C-1.46274105 6.62294375 -0.88935377 3.303314 0 0 Z " fill="#357BA7" transform="translate(277,238)"/>
<path d="M0 0 C-1.31224548 3.93673644 -2.91910327 6.22719294 -6 9 C-6.66 7.68 -7.32 6.36 -8 5 C-2.25 0 -2.25 0 0 0 Z " fill="#316F96" transform="translate(368,319)"/>
<path d="M0 0 C0.66 0 1.32 0 2 0 C5.07692308 6.4 5.07692308 6.4 4.6875 9.4375 C4.460625 9.953125 4.23375 10.46875 4 11 C2 9.4375 2 9.4375 0 7 C-0.25 3.25 -0.25 3.25 0 0 Z " fill="#4E809F" transform="translate(265,254)"/>
<path d="M0 0 C1.65 0.33 3.3 0.66 5 1 C5.33 1.99 5.66 2.98 6 4 C3.36 4.66 0.72 5.32 -2 6 C-1.34 4.02 -0.68 2.04 0 0 Z " fill="#3578A3" transform="translate(285,376)"/>
<path d="M0 0 C0 0.66 0 1.32 0 2 C-1.24176695 2.70226141 -2.49385599 3.38629109 -3.75 4.0625 C-4.79414063 4.63677734 -4.79414063 4.63677734 -5.859375 5.22265625 C-8.36140628 6.1312406 -9.5332355 5.88336837 -12 5 C-10.37750059 4.16180842 -8.75191503 3.3295884 -7.125 2.5 C-6.22007812 2.0359375 -5.31515625 1.571875 -4.3828125 1.09375 C-2 0 -2 0 0 0 Z " fill="#D7EDF7" transform="translate(210,279)"/>
<path d="M0 0 C0.66 0.66 1.32 1.32 2 2 C1.34 2.66 0.68 3.32 0 4 C-0.6837613 6.88717605 -0.6837613 6.88717605 -1.125 10.125 C-1.29257813 11.22070312 -1.46015625 12.31640625 -1.6328125 13.4453125 C-1.75398437 14.28835938 -1.87515625 15.13140625 -2 16 C-2.99020864 12.79857356 -3.0200144 10.20014399 -2.6875 6.875 C-2.60886719 6.00617188 -2.53023437 5.13734375 -2.44921875 4.2421875 C-2 2 -2 2 0 0 Z " fill="#DCF2F9" transform="translate(188,290)"/>
<path d="M0 0 C0.66 0 1.32 0 2 0 C2 0.66 2 1.32 2 2 C2.66 2 3.32 2 4 2 C5.2380014 5.57644848 4.74926071 8.33694766 4 12 C3.67 12 3.34 12 3 12 C2 8 1 4 0 0 Z " fill="#EAF8FA" transform="translate(232,249)"/>
<path d="M0 0 C2.97069541 2.54631035 4.4775751 5.42230149 6 9 C5.67 9.66 5.34 10.32 5 11 C1.87729874 8.48169253 1.05476902 7.2738451 0.25 3.25 C0.1675 2.1775 0.085 1.105 0 0 Z " fill="#3677A0" transform="translate(368,181)"/>
<path d="M0 0 C0.66 0.33 1.32 0.66 2 1 C-0.64 4.63 -3.28 8.26 -6 12 C-6.33 11.34 -6.66 10.68 -7 10 C-3.535 5.05 -3.535 5.05 0 0 Z " fill="#2D6B98" transform="translate(140,167)"/>
<path d="M0 0 C3.7952131 1.49097658 5.61042731 3.75700849 8 7 C7.01 7.33 6.02 7.66 5 8 C2.27573689 5.64722731 1.1858237 3.37503669 0 0 Z " fill="#347EA8" transform="translate(336,144)"/>
<path d="M0 0 C0.66 0 1.32 0 2 0 C1.67 3.96 1.34 7.92 1 12 C0.67 12 0.34 12 0 12 C-0.19573608 10.56359829 -0.38127816 9.12580496 -0.5625 7.6875 C-0.66691406 6.88699219 -0.77132812 6.08648437 -0.87890625 5.26171875 C-1 3 -1 3 0 0 Z " fill="#5B92B1" transform="translate(184,297)"/>
<path d="M0 0 C2 1.0625 2 1.0625 4 3 C4.25 6.6875 4.25 6.6875 4 10 C2 7 2 7 1 5 C0.01 5.495 0.01 5.495 -1 6 C-1.042721 4.33388095 -1.04063832 2.66617115 -1 1 C-0.67 0.67 -0.34 0.34 0 0 Z " fill="#3880AC" transform="translate(230,251)"/>
<path d="M0 0 C0.66 0.66 1.32 1.32 2 2 C-1.96 3.98 -1.96 3.98 -6 6 C-5.67 4.35 -5.34 2.7 -5 1 C-2.625 0.375 -2.625 0.375 0 0 Z " fill="#4581AB" transform="translate(207,277)"/>
<path d="M0 0 C0.99 0.33 1.98 0.66 3 1 C2.67 1.66 2.34 2.32 2 3 C3.65 3.33 5.3 3.66 7 4 C7 4.33 7 4.66 7 5 C4.36 5 1.72 5 -1 5 C-0.67 3.35 -0.34 1.7 0 0 Z " fill="#3679A2" transform="translate(273,378)"/>
<path d="M0 0 C-1.15173355 2.46800047 -2.04783565 4.04783565 -4 6 C-6.125 5.625 -6.125 5.625 -8 5 C-2.25 0 -2.25 0 0 0 Z " fill="#E1F2F7" transform="translate(235,262)"/>
<path d="M0 0 C2.31 0 4.62 0 7 0 C7.33 1.98 7.66 3.96 8 6 C6.66402348 5.19185349 5.331275 4.37836819 4 3.5625 C3.2575 3.11003906 2.515 2.65757812 1.75 2.19140625 C1.1725 1.79824219 0.595 1.40507812 0 1 C0 0.67 0 0.34 0 0 Z " fill="#518AAF" transform="translate(265,185)"/>
<path d="M0 0 C0.33 0.66 0.66 1.32 1 2 C0.0625 4.625 0.0625 4.625 -1 7 C-2.65 6.67 -4.3 6.34 -6 6 C-4.13216429 3.19824644 -2.69725519 1.88807863 0 0 Z " fill="#428ABC" transform="translate(167,143)"/>
<path d="M0 0 C0.66 0.33 1.32 0.66 2 1 C2.75 3.375 2.75 3.375 3 6 C2.01 7.485 2.01 7.485 1 9 C-0.61949011 6.42786866 -1.04408751 5.32330841 -0.625 2.25 C-0.41875 1.5075 -0.2125 0.765 0 0 Z " fill="#3F8BBF" transform="translate(125,297)"/>
<path d="M0 0 C0.66 0.33 1.32 0.66 2 1 C0.35 2.65 -1.3 4.3 -3 6 C-3.99 5.67 -4.98 5.34 -6 5 C-4.02 3.35 -2.04 1.7 0 0 Z " fill="#DDF3F9" transform="translate(225,268)"/>
<path d="M0 0 C1.65 1.65 3.3 3.3 5 5 C4.34 5.66 3.68 6.32 3 7 C2.01 6.34 1.02 5.68 0 5 C-0.1875 2.375 -0.1875 2.375 0 0 Z " fill="#3F8BC2" transform="translate(368,187)"/>
<path d="M0 0 C1.65 1.65 3.3 3.3 5 5 C4.67 5.66 4.34 6.32 4 7 C3.01 6.67 2.02 6.34 1 6 C0.67 4.02 0.34 2.04 0 0 Z " fill="#3C8DBF" transform="translate(352,161)"/>
</svg>
